<svg width="993" height="376" viewBox="0 0 993 376" fill="none" xmlns="http://www.w3.org/2000/svg">
<path d="M1654.92 337.183L1489.6 306.819L1320.69 294.239L1159.98 241.152L988.671 240.428L838.153 136.953L669.243 124.373L511.927 54.4902L329.424 109.093L171.709 41.1862L17.1921 -42.5288L59.5726 -251.982L224.285 -218.654L388.996 -185.327L553.708 -151.999L718.42 -118.671L883.132 -85.3437L1047.84 -52.016L1212.56 -18.6884L1377.27 14.6392L1541.98 47.9669L1706.69 81.2945L1654.92 337.183Z" fill="#222222"/>
<path d="M1652.52 349.039L1496.8 271.252L1327.49 260.648L1169.38 194.717L993.669 215.728L835.554 149.797L681.837 62.1301L515.326 37.6944L347.216 21.1625L188.301 -40.8167L7.99633 2.91855L59.5726 -251.982L224.285 -218.654L388.996 -185.327L553.708 -151.999L718.42 -118.671L883.132 -85.3437L1047.84 -52.0161L1212.56 -18.6885L1377.27 14.6392L1541.98 47.9668L1706.69 81.2944L1652.52 349.039Z" fill="#3E2B23"/>
<path d="M1661.71 303.591L1503 240.624L1346.88 164.813L1180.37 140.377L1003.46 167.317L844.55 105.338L676.639 87.8178L508.329 72.2739L342.418 44.8742L187.701 -37.8528L15.9926 -36.6009L59.5726 -251.982L224.285 -218.654L388.996 -185.327L553.708 -151.999L718.42 -118.671L883.132 -85.3437L1047.84 -52.0161L1212.56 -18.6884L1377.27 14.6392L1541.98 47.9668L1706.69 81.2945L1661.71 303.591Z" fill="#5A3422"/>
<path d="M1670.71 259.132L1505.6 227.78L1352.48 137.149L1183.77 123.582L1023.06 70.4941L851.547 70.758L689.433 24.5866L516.525 31.7664L362.209 -52.9365L199.096 -94.168L30.7858 -109.712L59.5726 -251.982L224.285 -218.654L388.996 -185.327L553.708 -151.999L718.42 -118.671L883.132 -85.3438L1047.84 -52.0161L1212.56 -18.6885L1377.27 14.6391L1541.98 47.9668L1706.69 81.2944L1670.71 259.132Z" fill="#763C22"/>
<path d="M1675.91 233.444L1511.99 196.165L1356.48 117.39L1185.37 115.678L1015.46 108.038L858.743 35.1906L691.233 15.6948L533.518 -52.2124L367.806 -80.6001L192.499 -61.5645L26.9876 -90.9401L59.5726 -251.982L224.285 -218.654L388.996 -185.327L553.708 -151.999L718.42 -118.671L883.132 -85.3437L1047.84 -52.0161L1212.56 -18.6884L1377.27 14.6392L1541.98 47.9668L1706.69 81.2945L1675.91 233.444Z" fill="#924420"/>
<path d="M1683.1 197.877L1520.59 153.681L1359.28 103.558L1191.77 84.0621L1025.05 60.6144L861.742 20.3708L694.231 0.874993L539.115 -79.876L363.008 -56.8884L201.095 -104.048L41.1811 -161.087L59.5726 -251.982L224.284 -218.654L388.996 -185.327L553.708 -151.999L718.42 -118.671L883.132 -85.3437L1047.84 -52.0161L1212.56 -18.6884L1377.27 14.6392L1541.98 47.9668L1706.69 81.2945L1683.1 197.877Z" fill="#AF4C1E"/>
<path d="M1688.3 172.189L1527.99 117.126L1366.27 68.9784L1199.56 45.5306L1035.25 10.227L871.937 -30.0165L702.228 -38.6445L542.513 -96.6718L374.603 -114.192L213.889 -167.279L45.579 -182.823L59.5726 -251.982L224.285 -218.654L388.996 -185.327L553.708 -151.999L718.42 -118.671L883.132 -85.3437L1047.84 -52.0161L1212.56 -18.6885L1377.27 14.6392L1541.98 47.9668L1706.69 81.2944L1688.3 172.189Z" fill="#CD541A"/>
<path d="M1699.49 116.862L1529.99 107.246L1370.27 49.2186L1207.96 4.03516L1036.05 6.27503L875.336 -46.8123L711.623 -85.0799L548.311 -125.323L377.002 -126.048L213.489 -165.303L49.977 -204.559L59.5726 -251.982L224.285 -218.654L388.996 -185.327L553.708 -151.999L718.42 -118.671L883.132 -85.3438L1047.84 -52.0161L1212.56 -18.6885L1377.27 14.6391L1541.98 47.9668L1706.69 81.2944L1699.49 116.862Z" fill="#EC5B13"/>
</svg>
