<svg width="31" height="31" viewBox="0 0 31 31" fill="none" xmlns="http://www.w3.org/2000/svg">
<path fill-rule="evenodd" clip-rule="evenodd" d="M5.63636 0C4.14151 0 2.70788 0.59383 1.65085 1.65085C0.59383 2.70788 0 4.14151 0 5.63636V25.3636C0 26.8585 0.59383 28.2921 1.65085 29.3491C2.70788 30.4062 4.14151 31 5.63636 31H25.3636C26.8585 31 28.2921 30.4062 29.3491 29.3491C30.4062 28.2921 31 26.8585 31 25.3636V5.63636C31 4.14151 30.4062 2.70788 29.3491 1.65085C28.2921 0.59383 26.8585 0 25.3636 0H5.63636ZM21.7676 10.8105C22.1413 10.8105 22.4998 10.6621 22.764 10.3978C23.0283 10.1336 23.1767 9.77517 23.1767 9.40145C23.1767 9.02774 23.0283 8.66933 22.764 8.40508C22.4998 8.14082 22.1413 7.99236 21.7676 7.99236C21.3939 7.99236 21.0355 8.14082 20.7713 8.40508C20.507 8.66933 20.3585 9.02774 20.3585 9.40145C20.3585 9.77517 20.507 10.1336 20.7713 10.3978C21.0355 10.6621 21.3939 10.8105 21.7676 10.8105ZM23.1767 22.506V12.3281H20.3585V22.506H23.1767ZM5.46164 22.506L9.96227 9.64382V8.71382H13.5569L18.5366 22.506H15.4479L14.2755 19.2834H9.40286L8.31082 22.506H5.46164ZM10.175 16.5413H13.4765L11.8265 11.1628L10.175 16.5413Z" fill="#EC5B13"/>
</svg>
