<svg width="31" height="31" viewBox="0 0 31 31" fill="none" xmlns="http://www.w3.org/2000/svg">
<path fill-rule="evenodd" clip-rule="evenodd" d="M5.63636 0C4.14151 0 2.70788 0.59383 1.65085 1.65085C0.59383 2.70788 0 4.14151 0 5.63636V25.3636C0 26.8585 0.59383 28.2921 1.65085 29.3491C2.70788 30.4062 4.14151 31 5.63636 31H25.3636C26.8585 31 28.2921 30.4062 29.3491 29.3491C30.4062 28.2921 31 26.8585 31 25.3636V5.63636C31 4.14151 30.4062 2.70788 29.3491 1.65085C28.2921 0.59383 26.8585 0 25.3636 0H5.63636ZM6.34091 8.45455H11.2727C12.5807 8.45455 13.8352 8.97415 14.76 9.89904C15.6849 10.8239 16.2045 12.0784 16.2045 13.3864C16.2045 14.6944 15.6849 15.9488 14.76 16.8737C13.8352 17.7986 12.5807 18.3182 11.2727 18.3182H9.15909V22.5455H6.34091V8.45455ZM9.15909 15.5H11.2727C11.8333 15.5 12.3709 15.2773 12.7673 14.8809C13.1637 14.4845 13.3864 13.9469 13.3864 13.3864C13.3864 12.8258 13.1637 12.2882 12.7673 11.8918C12.3709 11.4954 11.8333 11.2727 11.2727 11.2727H9.15909V15.5ZM23.8489 14.9843C22.6413 14.7123 21.3618 14.4981 20.4346 14.5672C19.9654 14.601 19.3665 14.7475 19.9696 15.2323C20.467 15.6296 21.0546 15.879 21.6436 16.127C22.2495 16.3835 22.8583 16.6414 23.374 17.0655C24.094 17.6573 24.6591 18.5197 24.6591 19.7273C24.6591 20.932 24.0898 21.855 23.1824 22.4045C22.3806 22.8893 21.4125 23.0274 20.5741 23.0485C19.2186 23.0823 17.725 22.8118 16.6118 22.5384V19.6244C17.6376 19.9175 19.2299 20.2627 20.5037 20.2303C21.166 20.2148 21.5563 20.0936 21.7338 19.9865C22.0156 19.8175 21.7592 19.3863 21.5859 19.244C21.0899 18.8353 20.4938 18.5845 19.895 18.3323C19.3031 18.0829 18.7085 17.832 18.2069 17.4305C17.4882 16.8527 16.9091 16.0002 16.9091 14.7955C16.9091 13.8161 17.3177 12.9918 18.0645 12.4493C18.7296 11.9702 19.5356 11.8068 20.2247 11.756C21.3872 11.6701 22.7286 11.8716 23.8489 12.1013V14.9843Z" fill="#EC5B13"/>
</svg>
