<svg width="31" height="31" viewBox="0 0 31 31" fill="none" xmlns="http://www.w3.org/2000/svg">
<path fill-rule="evenodd" clip-rule="evenodd" d="M5.63636 0C4.14151 0 2.70788 0.59383 1.65085 1.65085C0.59383 2.70788 0 4.14151 0 5.63636V25.3636C0 26.8585 0.59383 28.2921 1.65085 29.3491C2.70788 30.4062 4.14151 31 5.63636 31H25.3636C26.8585 31 28.2921 30.4062 29.3491 29.3491C30.4062 28.2921 31 26.8585 31 25.3636V5.63636C31 4.14151 30.4062 2.70788 29.3491 1.65085C28.2921 0.59383 26.8585 0 25.3636 0H5.63636ZM23.3486 7.75H26.1668V21.545C25.3707 21.8212 23.4135 22.3764 21.9565 22.3764C20.1345 22.3764 16.9091 21.4393 16.9091 17.0697C16.9091 13.2835 20.0612 11.8561 23.3486 11.8561V7.75ZM23.3486 14.2656V19.902C22.1791 19.902 19.8259 19.6019 19.8259 17.0838C19.8259 14.5658 22.1791 14.2656 23.3486 14.2656ZM7.75 9.69455H4.93182L8.45455 16.0355L4.93182 22.3764H7.75L10.5682 17.4445L13.3864 22.3764H16.2045L12.6818 16.0355L16.2045 9.69455H13.3864L10.5682 14.6264L7.75 9.69455Z" fill="#EC5B13"/>
</svg>
