<svg width="31" height="35" viewBox="0 0 31 35" fill="none" xmlns="http://www.w3.org/2000/svg">
<path d="M30.8748 8.8561L30.9609 8.79951C30.7886 8.48828 30.5301 8.20534 30.2716 8.06386L16.3995 0.19806C16.1698 0.0565885 15.8538 0 15.5092 0C15.1645 0 14.8486 0.0848828 14.6188 0.19806L0.8329 8.09216C0.344648 8.3751 0 9.08246 0 9.62005V25.38C0 25.6912 0.0574413 26.0307 0.258486 26.342L0.201045 26.3703C0.344648 26.5966 0.545694 26.7947 0.746738 26.9078L14.5901 34.8019C14.8199 34.9434 15.1358 35 15.4805 35C15.8251 35 16.141 34.9151 16.3708 34.8019L30.1567 26.9078C30.645 26.6249 30.9896 25.9175 30.9896 25.38V9.59175C31.0184 9.3654 30.9896 9.11075 30.8748 8.8561ZM15.5092 28.6621C9.24807 28.6621 4.1645 23.654 4.1645 17.4859C4.1645 11.3177 9.24807 6.30962 15.5092 6.30962C19.7311 6.30962 23.4074 8.60145 25.3604 11.9685L21.6267 14.0905C20.4204 11.9685 18.1228 10.5538 15.5092 10.5538C11.6319 10.5538 8.47261 13.6661 8.47261 17.4859C8.47261 21.3056 11.6319 24.4179 15.5092 24.4179C18.1228 24.4179 20.4204 23.0032 21.6267 20.9095L25.3317 23.0598C23.3787 26.3985 19.7024 28.6621 15.5092 28.6621ZM30.1567 16.92H29.2377L28.9792 18.0517H30.1567V19.4665H28.7207L28.3761 21.1641H26.9687L27.3134 19.4665H26.222L25.8774 21.1641H24.4988L24.8434 19.4665H24.1254V18.0517H25.1306L25.3891 16.92H24.1254V15.5053H25.6476L25.9922 13.8076H27.3996L27.0549 15.5053H28.1463L28.4909 13.8076H29.8695L29.5249 15.5053H30.1567V16.92ZM26.5092 18.0517H27.6006L27.8591 16.92H26.7677L26.5092 18.0517Z" fill="#EC5B13"/>
</svg>
