<svg width="25" height="39" viewBox="0 0 25 39" fill="none" xmlns="http://www.w3.org/2000/svg">
<path fill-rule="evenodd" clip-rule="evenodd" d="M5.46112 14.054C4.74451 14.054 4.03492 14.1948 3.37286 14.4685C2.7108 14.7421 2.10923 15.1432 1.60251 15.6488C1.0958 16.1544 0.693843 16.7546 0.419609 17.4153C0.145374 18.0759 0.00422798 18.7839 0.00422798 19.4989C0.00422798 20.214 0.145374 20.922 0.419609 21.5826C0.693843 22.2432 1.0958 22.8435 1.60251 23.3491C2.10923 23.8547 2.7108 24.2558 3.37286 24.5294C4.03492 24.8031 4.74451 24.9439 5.46112 24.9439H10.918V14.054H5.46112ZM10.918 10.892H5.46112C4.01358 10.892 2.62533 10.3182 1.60177 9.29691C0.578203 8.27559 0.00317125 6.89037 0.00317125 5.446C0.00317125 4.00163 0.578203 2.61642 1.60177 1.5951C2.62533 0.573774 4.01358 0 5.46112 0H10.918V10.892ZM14.0869 0V10.892H19.5438C20.9728 10.864 22.3337 10.2779 23.3343 9.25958C24.3349 8.24131 24.8954 6.8721 24.8954 5.446C24.8954 4.01991 24.3349 2.65069 23.3343 1.63242C22.3337 0.614154 20.9728 0.0280531 19.5438 0H14.0869ZM19.5438 14.0519C18.1115 14.0517 16.7364 14.6135 15.7155 15.616C14.6946 16.6185 14.1097 17.9814 14.0869 19.4104V19.5854C14.1044 20.6583 14.4393 21.7022 15.0494 22.5859C15.6596 23.4696 16.5178 24.1537 17.5163 24.5523C18.5148 24.9509 19.6091 25.0461 20.6618 24.8261C21.7144 24.6062 22.6784 24.0807 23.4327 23.3158C24.187 22.5509 24.698 21.5807 24.9015 20.527C25.1049 19.4732 24.9918 18.383 24.5763 17.3932C24.1608 16.4034 23.4614 15.5582 22.5661 14.9637C21.6707 14.3693 20.6193 14.052 19.5438 14.0519ZM5.46112 28.1059C4.38134 28.1055 3.32569 28.4246 2.42768 29.0229C1.52968 29.6211 0.829655 30.4717 0.416151 31.467C0.00264845 32.4623 -0.10576 33.5576 0.104638 34.6143C0.315036 35.6711 0.834789 36.6419 1.59816 37.4039C2.36153 38.1658 3.33423 38.6848 4.39323 38.8952C5.45223 39.1055 6.54996 38.9978 7.54759 38.5856C8.54521 38.1734 9.39792 37.4752 9.99786 36.5794C10.5978 35.6836 10.918 34.6304 10.918 33.5529V28.1059H5.46112Z" fill="#EC5B13"/>
</svg>
