<svg width="31" height="43" viewBox="0 0 31 43" fill="none" xmlns="http://www.w3.org/2000/svg">
<path d="M31 34.7011L16.8562 42.6188C15.8875 43.1271 14.9187 43.1271 13.95 42.6188L0 34.7011L25.2844 8.99295L25.9625 8.79745C26.5437 8.79745 26.8731 9.0516 26.9312 9.57945L31 34.7011ZM10.3656 9.38395L1.55 24.1441L5.23125 0.781996C5.28937 0.254149 5.61875 0 6.2 0C6.5875 0 6.83938 0.1173 6.975 0.488748L11.1406 8.21096L10.3656 9.38395ZM19.0844 11.8472L0.58125 30.5956L14.6281 6.54922C14.8219 6.15822 15.1125 5.98227 15.5 5.98227C15.8875 5.98227 16.1394 6.15822 16.275 6.54922L19.0844 11.8472Z" fill="#EC5B13"/>
</svg>
