<svg width="31" height="31" viewBox="0 0 31 31" fill="none" xmlns="http://www.w3.org/2000/svg">
<path d="M0.919064 13.3129L9.88479 4.33162L12.5063 6.9686C12.134 8.28709 12.7389 9.72967 13.9488 10.4277V19.0211C13.0181 19.5485 12.3977 20.5568 12.3977 21.7047C12.3977 22.5274 12.7245 23.3165 13.3063 23.8983C13.8881 24.4801 14.6772 24.807 15.5 24.807C16.3228 24.807 17.1119 24.4801 17.6937 23.8983C18.2755 23.3165 18.6023 22.5274 18.6023 21.7047C18.6023 20.5568 17.9819 19.5485 17.0512 19.0211V11.4825L20.2621 14.7244C20.1535 14.9571 20.1535 15.2208 20.1535 15.5C20.1535 16.3228 20.4803 17.1119 21.0621 17.6937C21.6439 18.2755 22.433 18.6023 23.2558 18.6023C24.0786 18.6023 24.8677 18.2755 25.4495 17.6937C26.0313 17.1119 26.3581 16.3228 26.3581 15.5C26.3581 14.6772 26.0313 13.8881 25.4495 13.3063C24.8677 12.7245 24.0786 12.3977 23.2558 12.3977C22.9766 12.3977 22.7129 12.3977 22.4802 12.5063L18.4937 8.51976C18.6863 7.80132 18.6117 7.03739 18.2836 6.36984C17.9555 5.70229 17.3964 5.17647 16.7099 4.89004C16.0429 4.64186 15.3449 4.57981 14.7244 4.75044L12.0874 2.12897L13.3129 0.919064C14.5228 -0.306355 16.4772 -0.306355 17.6871 0.919064L30.0809 13.3129C31.3064 14.5228 31.3064 16.4772 30.0809 17.6871L17.6871 30.0809C16.4772 31.3064 14.5228 31.3064 13.3129 30.0809L0.919064 17.6871C-0.306355 16.4772 -0.306355 14.5228 0.919064 13.3129Z" fill="#EC5B13"/>
</svg>
