<svg width="361" height="416" viewBox="0 0 361 416" fill="none" xmlns="http://www.w3.org/2000/svg">
<path d="M31.7223 490.097L62.5739 434.483L78.7844 369.179L128.344 325.946L134.794 254.182L225.836 238.403L242.047 173.1L305.434 139.018L266.334 37.1085L328.095 1.9502L402.869 -24.5949L575.309 89.5282L542.017 143.527L508.725 197.527L475.434 251.526L442.142 305.525L408.85 359.525L375.558 413.524L342.267 467.523L308.975 521.523L275.683 575.522L242.391 629.521L31.7223 490.097Z" fill="#222222"/>
<path d="M21.9615 483.637L91.856 453.862L106.44 387.482L166.573 351.247L155.129 267.64L215.262 231.405L293.291 207.013L319.262 148.169L338.726 85.0186L395.606 46.6305L365.453 -49.3575L575.309 89.5282L542.017 143.527L508.725 197.527L475.433 251.526L442.142 305.525L408.85 359.525L375.558 413.524L342.266 467.523L308.975 521.523L275.683 575.522L242.391 629.521L21.9615 483.637Z" fill="#3E2B23"/>
<path d="M59.3776 508.4L117.071 470.55L185.339 439.699L211.31 380.854L194.985 294.018L251.865 255.63L272.142 193.017L290.793 129.328L319.204 72.0991L393.166 45.0156L397.989 -27.8248L575.309 89.5282L542.017 143.527L508.725 197.527L475.433 251.526L442.142 305.525L408.85 359.525L375.558 413.524L342.266 467.523L308.975 521.523L275.683 575.522L242.391 629.521L59.3776 508.4Z" fill="#5A3422"/>
<path d="M95.9805 532.624L127.645 477.548L208.114 454.771L225.138 390.006L274.697 346.773L280.334 274.471L324.2 227.469L324.142 151.399L399.731 125.392L439.529 75.6996L458.18 12.0106L575.309 89.5282L542.017 143.527L508.725 197.527L475.434 251.526L442.142 305.525L408.85 359.525L375.558 413.524L342.267 467.523L308.975 521.523L275.683 575.522L242.391 629.521L95.9805 532.624Z" fill="#763C22"/>
<path d="M117.129 546.621L153.674 494.775L224.382 465.538L231.645 394.312L243.788 326.317L309.616 293.85L331.52 232.314L393.281 197.156L422.506 140.465L412.687 57.9352L442.726 1.78263L575.309 89.5282L542.017 143.528L508.725 197.527L475.433 251.526L442.142 305.525L408.85 359.525L375.558 413.524L342.266 467.523L308.975 521.523L275.683 575.522L242.391 629.521L117.129 546.621Z" fill="#924420"/>
<path d="M146.411 566L188.65 517.922L235.769 473.074L257.673 411.538L282.831 352.156L321.817 301.925L343.721 240.389L416.056 212.229L402.984 127.546L447.663 81.0827L500.476 40.0031L575.309 89.5282L542.017 143.527L508.725 197.527L475.433 251.526L442.142 305.525L408.85 359.525L375.558 413.524L342.266 467.523L308.975 521.523L275.683 575.522L242.391 629.521L146.411 566Z" fill="#AF4C1E"/>
<path d="M167.559 579.996L218.745 537.84L264.238 491.915L289.396 432.533L324.314 379.61L363.3 329.379L376.257 261.922L429.883 221.38L450.161 158.768L499.72 115.535L518.371 51.846L575.309 89.5281L542.017 143.527L508.725 197.527L475.433 251.526L442.142 305.525L408.85 359.525L375.558 413.524L342.266 467.523L308.975 521.523L275.683 575.522L242.391 629.521L167.559 579.996Z" fill="#CD541A"/>
<path d="M213.109 610.142L226.879 543.223L280.506 502.682L323.558 455.142L327.568 381.763L377.128 338.53L414.486 287.223L453.472 236.992L459.922 165.228L498.094 114.458L536.266 63.689L575.309 89.5282L542.017 143.527L508.725 197.527L475.433 251.526L442.142 305.525L408.85 359.525L375.558 413.524L342.267 467.523L308.975 521.523L275.683 575.522L242.391 629.521L213.109 610.142Z" fill="#EC5B13"/>
</svg>
