<svg width="31" height="31" viewBox="0 0 31 31" fill="none" xmlns="http://www.w3.org/2000/svg">
<path d="M27.9761 0V0.00435937H12.6791C12.1967 0.00529585 11.7253 0.147465 11.3234 0.413189C10.9215 0.678912 10.6068 1.05647 10.4186 1.4989L9.63089 3.33129L9.609 3.31167C9.16255 2.93111 8.59444 2.72174 8.00686 2.72122H2.46206C2.05877 2.72146 1.66172 2.82045 1.30586 3.00948C0.949999 3.19851 0.646242 3.47178 0.421324 3.80525V3.80767L0.324563 3.94814V3.98326C0.279829 4.06197 0.229747 4.13487 0.193036 4.2223L0.149275 4.32765V4.4439C0.0731786 4.68052 0 4.9198 0 5.18136V11.2908C0 11.3947 0.0026743 11.5155 0.0240687 11.6509L2.4905 28.8845V28.8867C2.66482 30.0947 3.70415 31 4.92655 31H12.2403C12.2901 31 12.3144 30.9971 12.3368 30.9956H13.5679C14.0513 30.9956 14.527 30.8527 14.9328 30.5808L18.9353 27.9102L18.6785 27.697C19.1244 28.075 19.6906 28.2827 20.2761 28.2831H25.8213C27.174 28.2831 28.2834 27.1763 28.2834 25.823V21.6734L29.905 20.5915L29.9074 20.5893C30.2438 20.3632 30.5194 20.0582 30.7098 19.7012C30.9003 19.3443 31 18.9462 31 18.5419V2.46014C30.9998 1.1068 29.8904 0 28.5377 0H27.9761ZM12.6791 1.12811H28.5486C29.2906 1.13465 29.8763 1.71735 29.8763 2.46014V18.5416C29.8762 18.7617 29.8219 18.9784 29.7182 19.1728C29.6146 19.3671 29.4647 19.5332 29.2816 19.6564H29.2795V19.6588L27.1595 21.0718V25.823C27.1595 26.5701 26.5689 27.1594 25.8211 27.1594H20.2758C19.9555 27.1587 19.6459 27.0444 19.4025 26.8368L19.4003 26.8346L19.0097 26.5101L14.3095 29.6459H14.307C14.0887 29.7929 13.8312 29.8716 13.5677 29.8719H12.3081C12.2624 29.8743 12.2405 29.8762 12.24 29.8762H4.92606C4.2536 29.8762 3.69783 29.3936 3.60058 28.7263V28.7242L1.13415 11.4797V11.4753C1.12622 11.4142 1.12257 11.3526 1.12321 11.291V5.18136C1.12285 4.91551 1.20236 4.65564 1.35149 4.43518V4.43276C1.35393 4.42961 1.35782 4.42743 1.36025 4.42428C1.48243 4.24547 1.64671 4.09918 1.83873 3.9982C2.03075 3.89721 2.24468 3.84461 2.46181 3.84497H8.00686C8.32534 3.84497 8.63604 3.95952 8.88014 4.16756L10.0607 5.17918L11.4499 1.93992V1.93774C11.5516 1.69696 11.7225 1.49156 11.9413 1.34747C12.16 1.20338 12.4169 1.12705 12.6791 1.12811ZM6.16353 6.16222V24.8378H24.8357V6.16222H6.16353ZM15.3692 8.50175H16.7319V13.2968C16.7319 13.717 16.6337 14.0931 16.4423 14.4293C16.2545 14.7612 15.978 15.0347 15.6434 15.2193C15.3028 15.4106 14.925 15.5046 14.5003 15.5046H13.3238V14.2428H14.3267C14.5273 14.2428 14.7099 14.2019 14.8686 14.1132C15.0241 14.0276 15.152 13.8997 15.2372 13.7444C15.3259 13.5857 15.369 13.4077 15.369 13.2024L15.3692 8.50175ZM8.49625 8.50635H12.6239V9.72431H11.233V14.2866H12.6242V15.5046H8.49625V14.2866H9.88762V9.72431H8.49625V8.50635ZM8.49625 21.1071H15.9661V22.507H8.49625V21.1071Z" fill="#EC5B13"/>
</svg>
