<svg width="31" height="31" viewBox="0 0 31 31" fill="none" xmlns="http://www.w3.org/2000/svg">
<path d="M5.16667 0C3.79638 0 2.48222 0.544344 1.51328 1.51328C0.544344 2.48222 0 3.79638 0 5.16667V25.8333C0 27.2036 0.544344 28.5178 1.51328 29.4867C2.48222 30.4557 3.79638 31 5.16667 31H25.8333C27.2036 31 28.5178 30.4557 29.4867 29.4867C30.4557 28.5178 31 27.2036 31 25.8333V5.16667C31 3.79638 30.4557 2.48222 29.4867 1.51328C28.5178 0.544344 27.2036 0 25.8333 0H5.16667ZM17.7974 22.4836C19.0374 23.4825 20.2751 23.9751 21.5106 23.9613C22.2683 23.9613 22.8493 23.8224 23.2534 23.5445C23.4416 23.4223 23.5947 23.2533 23.6977 23.054C23.8007 22.8547 23.85 22.632 23.8407 22.4078C23.8433 22.1633 23.7923 21.9213 23.6911 21.6987C23.5899 21.4761 23.4411 21.2784 23.2552 21.1196C22.851 20.7671 22.0864 20.4135 20.9612 20.0587C19.6098 19.6684 18.5679 19.1632 17.8353 18.5432C17.1166 17.9232 16.7503 17.058 16.7366 15.9478C16.7366 14.8995 17.1912 14.0218 18.1006 13.3145C18.9846 12.6072 20.1156 12.2536 21.4933 12.2536C23.413 12.2536 24.9533 12.7209 26.1141 13.6555L24.7879 15.7204C24.3104 15.3492 23.7627 15.0785 23.1777 14.9248C22.652 14.7486 22.1027 14.6528 21.5484 14.6406C20.894 14.6406 20.3699 14.7606 19.9761 15.0006C19.5857 15.2417 19.3905 15.5574 19.3905 15.9478C19.3905 16.3772 19.6299 16.7434 20.1087 17.0466C20.5909 17.3382 21.4118 17.6602 22.5714 18.0127C23.9733 18.4295 24.9711 18.9852 25.5647 19.6798C26.1583 20.3745 26.4551 21.2585 26.4551 22.3321C26.4551 23.4308 26.032 24.3781 25.1858 25.1737C24.3522 25.9568 23.1398 26.3672 21.5484 26.4051C19.4646 26.4051 17.7217 25.7799 16.3198 24.5296L17.7974 22.4836ZM8.27356 23.5824C8.6777 23.835 9.16394 23.9613 9.73228 23.9613C10.3259 23.9613 10.8184 23.7908 11.2099 23.4498C11.6003 23.0961 11.7961 22.4836 11.7972 21.6122V12.4809H14.3547V22.1047C14.3168 23.595 13.8874 24.6685 13.0665 25.3253C12.6173 25.705 12.0951 25.9887 11.532 26.1588C11.0099 26.3178 10.4675 26.4008 9.92172 26.4051C8.9745 26.4051 8.13463 26.2409 7.40211 25.9126C6.61907 25.5601 5.96233 24.9349 5.43189 24.0371L7.21267 22.5783C7.53989 23.0204 7.89352 23.3551 8.27356 23.5824Z" fill="#EC5B13"/>
</svg>
