<svg width="31" height="43" viewBox="0 0 31 43" fill="none" xmlns="http://www.w3.org/2000/svg">
<path d="M23.4406 8.89071L23.5493 8.95322C22.077 9.73465 17.8698 12.2528 17.8698 15.4625C17.8698 16.5448 18.4856 17.588 19.0625 18.5687C19.5714 19.4322 20.0511 20.2429 20.0511 20.9872C20.0511 22.8568 18.2389 24.3083 17.2153 24.9764L17.021 24.8631C17.4076 24.3884 17.8834 23.5933 17.8834 22.7454C17.8834 21.5772 17.2871 20.6434 16.6831 19.6959C16.0576 18.7172 15.4244 17.7228 15.4244 16.4335C15.4244 11.9559 21.4749 9.55297 23.4406 8.89071ZM15.4866 11.2584C17.9203 9.07044 20.5795 6.67927 20.5795 3.08274C20.5795 1.45541 19.9171 0.416111 19.5888 0L19.482 0.0605608C19.5597 0.384854 19.6762 0.982647 19.6762 1.76408C19.6762 5.03826 16.9142 7.33176 14.2415 9.55492C11.7339 11.6413 9.30399 13.6613 9.30399 16.3651C9.30399 20.2429 13.1072 22.6282 14.7135 23.6363L14.8359 23.7144L14.933 23.6558C14.8462 23.5594 14.7543 23.4605 14.6572 23.3589C13.4218 22.0363 11.5455 20.03 11.5455 16.9609C11.5455 14.8061 13.4354 13.1046 15.4866 11.2584ZM14.6105 30.6144C18.0369 30.6144 20.4338 30.1202 21.4982 29.8174L23.1142 30.7551C21.5739 31.5424 18.1593 32.1421 14.6028 32.1421C10.4208 32.1421 5.84851 31.2396 5.83491 30.0362C5.8252 29.372 7.32082 28.9305 8.93299 28.6452L9.03011 28.7019C9.03011 28.7019 8.48431 28.8992 8.49013 29.3524C8.4979 30.0362 11.2483 30.6144 14.6086 30.6144M7.75397 34.8556C7.75397 34.0586 9.38362 33.6835 10.1295 33.5331L10.2266 33.5917C10.0984 33.6874 10.0285 33.8183 10.0285 33.9297C10.0285 34.4513 11.8349 34.9279 14.6047 34.9279C17.0871 34.9279 18.4662 34.6212 19.2858 34.4239L21.2088 35.5433C21.1214 35.6058 19.2276 36.8034 14.6008 36.8034C11.2386 36.8034 7.75397 35.9594 7.75397 34.8556ZM24.3205 31.4799C26.6125 30.1651 28.9064 28.6101 29.0365 26.1134C29.122 24.4744 27.6244 23.2729 25.987 23.5933L26.0744 23.3745V23.3706C26.4862 23.2456 26.9951 23.144 27.5642 23.144C29.3959 23.144 30.8002 24.2477 30.9789 25.793C31.3402 28.8914 26.9737 30.9075 24.5283 31.601L24.3205 31.4799ZM28.1566 37.3172C28.1761 39.4465 20.9738 40.7125 14.5367 40.7691C8.97961 40.818 0.0194498 39.7611 2.60845e-05 37.6336C-0.0116281 36.1626 3.88477 35.1428 6.00195 34.8498L6.22533 34.9787C6.22533 34.9787 3.06897 35.7152 3.07869 37.0534C3.09034 38.3877 9.73131 39.5423 14.527 39.5012C21.9566 39.4348 26.9854 38.2177 27.5798 36.567L27.6846 36.5064C27.9022 36.6666 28.1508 36.9303 28.1566 37.3172ZM5.55521 41.6541C8.30355 42.0957 11.0835 42.3081 13.8666 42.289C25.9249 42.1835 29.3279 39.2023 29.8523 38.5538L29.9436 38.6085C29.8193 40.9684 23.4425 42.9298 15.5778 42.9981C11.5746 43.0333 7.93073 42.5684 5.31241 41.7967L5.55521 41.6541ZM10.6093 23.5191C8.51344 23.6812 4.01297 24.3513 4.01297 25.543C4.01297 26.4455 8.13856 27.7173 14.6028 27.7173C20.4182 27.7173 24.0893 26.6135 24.9459 26.1935L23.697 25.4609C22.8035 25.7051 19.484 26.4494 14.6028 26.4494C11.7281 26.4494 6.77502 25.9161 6.77502 25.1015C6.77502 24.3708 9.86533 23.8062 10.753 23.646L10.8093 23.6363L10.6093 23.5191Z" fill="#EC5B13"/>
</svg>
