<svg width="33" height="28" viewBox="0 0 33 28" fill="none" xmlns="http://www.w3.org/2000/svg">
<path d="M21.2361 5.30556C21.2361 5.30556 18.4375 3.79861 15.8542 3.79861C13.0556 3.79861 11.7639 5.30556 11.7639 8.10417C11.7639 11.1181 17.1459 12.4097 17.1459 12.4097C17.1459 12.4097 21.2361 13.9167 21.2361 16.7153C21.2361 19.7292 19.9445 21.0208 17.1459 21.0208C14.5625 21.0208 11.7639 19.7292 11.7639 19.7292M17.1459 1V25.3264" stroke="#EC5B13" stroke-width="2" stroke-linecap="round"/>
<path d="M7.88889 1C7.88889 1 6.38195 1 5.09028 2.50694C3.58333 3.79861 3.58333 9.61111 3.58333 11.1181C3.58333 12.4097 1 12.4097 1 13.9167C1 15.4236 3.79861 15.4236 3.79861 16.7153C3.79861 18.2222 3.79861 24.0347 5.09028 25.3264C6.38195 26.8333 7.67361 26.8333 7.67361 26.8333M25.1111 26.8333C25.1111 26.8333 26.6181 26.8333 27.9097 25.3264C29.2014 24.0347 29.2014 18.2222 29.2014 16.7153C29.2014 15.4236 32 15.4236 32 13.9167C32 12.4097 29.2014 12.4097 29.2014 11.1181C29.2014 9.61111 29.2014 3.79861 27.9097 2.50694C26.6181 1 25.3264 1 25.3264 1" stroke="#EC5B13" stroke-width="2" stroke-linecap="round"/>
</svg>
