<svg width="26" height="26" viewBox="0 0 26 26" fill="none" xmlns="http://www.w3.org/2000/svg">
<rect width="26" height="26" fill="#EC5B13"/>
<path d="M7.5 19C7.0875 19 6.73437 18.8531 6.44063 18.5594C6.14688 18.2656 6 17.9125 6 17.5V8.5C6 8.0875 6.14688 7.73437 6.44063 7.44062C6.73437 7.14687 7.0875 7 7.5 7H19.5C19.9125 7 20.2656 7.14687 20.5594 7.44062C20.8531 7.73437 21 8.0875 21 8.5V17.5C21 17.9125 20.8531 18.2656 20.5594 18.5594C20.2656 18.8531 19.9125 19 19.5 19H7.5ZM7.5 17.5H19.5V10H7.5V17.5ZM14.9346 16.75L13.8846 15.7L15.8159 13.75L13.8659 11.8L14.9346 10.75L17.9346 13.75L14.9346 16.75ZM11.9863 16.75L9.26923 13.75L11.9863 10.75L12.9478 11.8L11.0247 13.75L12.9478 15.7L11.9863 16.75Z" fill="#0A0A0A"/>
<path d="M9.26923 13.75L11.9863 16.75L12.9478 15.7L11.0247 13.75L12.9478 11.8L11.9863 10.75L9.26923 13.75Z" fill="#0A0A0A"/>
</svg>
