<svg width="31" height="26" viewBox="0 0 31 26" fill="none" xmlns="http://www.w3.org/2000/svg">
<path d="M26.1291 17.7549C26.2587 17.6804 26.367 17.5757 26.4443 17.4503C26.5183 17.3228 26.5583 17.1793 26.5605 17.033L26.576 12.1976C26.5783 12.0512 26.6183 11.9077 26.6923 11.7802C26.7699 11.6546 26.8787 11.5499 27.0087 11.4756L29.7083 9.96786C29.84 9.89691 29.9879 9.859 30.1385 9.85757C30.2893 9.85976 30.4371 9.89854 30.5686 9.97037C30.6981 10.0448 30.8065 10.1495 30.8837 10.2749C30.9573 10.4026 30.9968 10.5461 30.9987 10.6923V19.4833C30.9982 19.6302 30.958 19.7744 30.882 19.9015C30.8061 20.0287 30.6971 20.1342 30.566 20.2077L20.3709 25.8904C20.2405 25.9622 20.0932 26 19.9433 26C19.7934 26 19.6461 25.9622 19.5158 25.8904L11.5152 21.451C11.3835 21.3779 11.2739 21.2724 11.1975 21.1452C11.1214 21.0176 11.0813 20.8728 11.0812 20.7253V16.2922C11.0821 16.2864 11.0855 16.2847 11.0915 16.2872C11.1002 16.2897 11.1036 16.2876 11.1019 16.281V16.276C11.1019 16.2726 11.1036 16.2697 11.107 16.2672L17.6971 12.5949C17.7023 12.5911 17.6997 12.5823 17.6932 12.5823L17.6881 12.5798L17.6868 12.5748L17.6997 8.22947C17.6999 8.08236 17.6603 7.93778 17.5848 7.8102C17.5093 7.68262 17.4006 7.57652 17.2696 7.50253C17.1385 7.42952 16.99 7.39111 16.8388 7.39111C16.6877 7.39111 16.5391 7.42952 16.408 7.50253L11.5113 10.2423C11.3805 10.3149 11.2325 10.353 11.0819 10.353C10.9312 10.353 10.7832 10.3149 10.6524 10.2423L5.73888 7.49752C5.60802 7.42464 5.45973 7.3864 5.30885 7.3866C5.15797 7.3868 5.00979 7.42545 4.87914 7.49867C4.74849 7.57189 4.63995 7.67712 4.56437 7.80383C4.4888 7.93055 4.44884 8.0743 4.4485 8.2207V16.0754C4.44816 16.2218 4.40841 16.3655 4.33319 16.4923C4.25797 16.6192 4.14989 16.7248 4.01967 16.7986C3.88862 16.8702 3.74122 16.909 3.59083 16.9114C3.44023 16.91 3.29238 16.8721 3.16071 16.8011L0.434 15.2883C0.302282 15.2152 0.192701 15.1097 0.11625 14.9825C0.0399678 14.8545 -0.000133702 14.7092 3.34909e-07 14.5614L0.024542 0.833475C0.0250104 0.687257 0.0649942 0.543715 0.140502 0.417177C0.216011 0.290639 0.324402 0.185531 0.454858 0.112345C0.585313 0.0391588 0.73327 0.000454224 0.883959 9.44274e-05C1.03465 -0.000265369 1.1828 0.0377323 1.31363 0.110295L10.6524 5.31544C10.7832 5.38799 10.9312 5.42615 11.0819 5.42615C11.2325 5.42615 11.3805 5.38799 11.5113 5.31544L20.8475 0.110295C20.9792 0.0393423 21.127 0.0014298 21.2776 0C21.4285 0.00219673 21.5763 0.0409745 21.7077 0.112801C21.8375 0.187624 21.9458 0.292757 22.0229 0.418618C22.096 0.546381 22.1351 0.689846 22.1366 0.835982V14.5676C22.1366 14.7143 22.0978 14.8584 22.0216 14.9863C21.9455 15.1133 21.8364 15.2188 21.7052 15.2921L16.8162 18.0244C16.6848 18.098 16.5757 18.2039 16.4998 18.3314C16.4244 18.4588 16.3847 18.6032 16.3848 18.7501C16.3851 18.8971 16.4252 19.0414 16.501 19.1687C16.5778 19.296 16.6879 19.4015 16.8201 19.4745L19.5171 20.9647C19.6477 21.0346 19.7942 21.0721 19.9433 21.0738C20.0936 21.0717 20.241 21.0334 20.3722 20.9622L26.1291 17.7549ZM26.6949 5.43702C26.695 5.58445 26.7351 5.72926 26.8111 5.85689C26.8883 5.98442 26.9988 6.08991 27.1315 6.1627C27.2639 6.23489 27.4136 6.27196 27.5655 6.2702C27.7175 6.26844 27.8662 6.22791 27.9969 6.15268L30.5815 4.64866C30.7077 4.57305 30.8129 4.46845 30.8876 4.3441C30.9595 4.21771 30.9981 4.07607 31 3.93175V0.868569C30.9995 0.721022 30.959 0.576204 30.8825 0.448698C30.8053 0.321512 30.6949 0.216312 30.5625 0.143699C30.43 0.0710869 30.2802 0.0336267 30.1281 0.0350937C29.9762 0.0369252 29.8274 0.0775593 29.6967 0.152908L27.1134 1.65692C26.9867 1.73238 26.8811 1.83698 26.806 1.96149C26.7346 2.08799 26.6964 2.22962 26.6949 2.37384V5.43702Z" fill="#EC5B13"/>
</svg>
