<svg width="31" height="31" viewBox="0 0 31 31" fill="none" xmlns="http://www.w3.org/2000/svg">
<path fill-rule="evenodd" clip-rule="evenodd" d="M4.46126e-07 15.4972C0.000340673 12.8229 0.692683 10.1941 2.00971 7.86659C3.32675 5.53904 5.22365 3.59184 7.51601 2.21432C9.80837 0.836802 12.4182 0.0758255 15.0917 0.00537938C17.7652 -0.0650667 20.4115 0.557414 22.7732 1.8123C25.1349 3.06719 27.1318 4.91179 28.5696 7.16675C30.0074 9.42171 30.8372 12.0103 30.9784 14.6809C31.1196 17.3515 30.5673 20.0131 29.3753 22.4071C28.1833 24.8011 26.3921 26.8459 24.1759 28.3428L10.1391 8.6982C10.0116 8.52092 9.8313 8.38855 9.62396 8.3201C9.41663 8.25164 9.19293 8.25062 8.98498 8.31718C8.77703 8.38374 8.5955 8.51446 8.46645 8.69058C8.3374 8.8667 8.26746 9.07917 8.26667 9.2975V24.7966H10.3333V12.5213L22.382 29.3885C20.0186 30.5596 17.3954 31.1082 14.7607 30.9824C12.126 30.8566 9.56702 30.0605 7.32594 28.6696C5.08485 27.2787 3.23581 25.3389 1.95384 23.0338C0.671865 20.7287 -0.000632322 18.1347 4.46126e-07 15.4972ZM20.6667 20.6635V8.26423H22.7333V20.6635H20.6667Z" fill="#EC5B13"/>
</svg>
