<svg width="31" height="17" viewBox="0 0 31 17" fill="none" xmlns="http://www.w3.org/2000/svg">
<path d="M15.5 0C6.93964 0 0 3.80591 0 8.5C0 13.1941 6.93964 17 15.5 17C24.0601 17 31 13.1941 31 8.5C31 3.80591 24.0604 0 15.5 0ZM14.0512 2.47668H15.8175V2.47744L15.3949 4.74155H16.9681C17.9582 4.74155 18.641 4.92156 19.0166 5.28157C19.3924 5.64176 19.5053 6.22495 19.3551 7.03116L18.6157 10.9949H16.8216L17.5244 7.22581C17.6044 6.79729 17.5749 6.50502 17.436 6.349C17.2972 6.19331 17.0019 6.11547 16.5501 6.11547H15.1387L14.229 10.9944H12.4632L14.0512 2.47668ZM6.47367 4.7418H9.89651C10.9264 4.7418 11.6776 5.02355 12.1501 5.58706C12.6223 6.15039 12.7642 6.9369 12.5758 7.9466C12.4982 8.36266 12.367 8.74304 12.1823 9.08774C11.9976 9.43244 11.7562 9.7476 11.4581 10.0332C11.1026 10.3799 10.7078 10.627 10.2736 10.7745C9.83911 10.9219 9.28547 10.9955 8.61267 10.9954H7.08834L6.66573 13.26H4.88565L6.47367 4.7418ZM20.367 4.7418H23.7891C24.8189 4.7418 25.5699 5.02355 26.0422 5.58706H26.0427C26.5151 6.15039 26.6572 6.9369 26.4689 7.9466C26.3914 8.36266 26.2604 8.74304 26.0758 9.08774C25.8913 9.43244 25.6498 9.7476 25.3512 10.0332C24.996 10.3799 24.601 10.627 24.1662 10.7745C23.7319 10.9219 23.1785 10.9955 22.506 10.9954H20.9814L20.5591 13.26H18.779L20.367 4.7418ZM8.00309 6.08618L7.33901 9.65099H8.4211C9.13895 9.65116 9.67353 9.51037 10.0249 9.22861C10.3759 8.9467 10.613 8.4761 10.7362 7.81683C10.8537 7.18365 10.7999 6.73687 10.5749 6.47649C10.3498 6.21611 9.89901 6.08593 9.2225 6.08593L8.00309 6.08618ZM21.8957 6.08618L21.2311 9.65099H22.3137C23.0315 9.65116 23.5661 9.51037 23.9175 9.22861C24.2683 8.9467 24.5053 8.4761 24.6283 7.81683C24.7462 7.18365 24.6925 6.73687 24.4675 6.47649C24.2424 6.21611 23.7916 6.08593 23.1151 6.08593L21.8957 6.08618Z" fill="#EC5B13"/>
</svg>
