<svg width="713" height="533" viewBox="0 0 713 533" fill="none" xmlns="http://www.w3.org/2000/svg">
<path d="M-1246.45 34.6896L-1050.77 86.8485L-850.584 122.997L-660.655 195.614L-457.466 221.088L-280.295 339.068L-80.1083 375.217L105.568 462.955L322.767 438.618L508.944 524.577L691.118 624.768L638.081 813.337L443.148 758.51L248.215 703.682L53.2815 648.855L-141.652 594.028L-336.585 539.2L-531.518 484.373L-726.451 429.546L-921.384 374.719L-1116.32 319.891L-1311.25 265.064L-1246.45 34.6896Z" fill="#222222"/>
<path d="M-1243.45 24.0159L-1059.78 118.87L-859.09 153.239L-672.413 237.419L-463.72 243.325L-277.043 327.505L-95.8693 431.254L101.315 478.076L300.502 517.782L488.18 598.404L702.626 583.852L638.081 813.337L443.148 758.51L248.215 703.682L53.2816 648.855L-141.652 594.028L-336.585 539.201L-531.518 484.373L-726.451 429.546L-921.384 374.719L-1116.32 319.891L-1311.25 265.064L-1243.45 24.0159Z" fill="#3E2B23"/>
<path d="M-1254.96 64.9317L-1067.53 146.443L-883.357 239.518L-686.173 286.34L-475.979 286.909L-288.301 367.532L-89.3649 408.127L110.071 446.944L306.506 496.434L488.93 595.736L692.619 619.431L638.081 813.337L443.148 758.51L248.215 703.682L53.2815 648.855L-141.652 594.028L-336.585 539.2L-531.518 484.373L-726.451 429.546L-921.384 374.719L-1116.32 319.891L-1311.25 265.064L-1254.96 64.9317Z" fill="#5A3422"/>
<path d="M-1266.22 104.958L-1070.79 158.007L-890.362 264.423L-690.426 301.461L-500.496 374.078L-297.057 398.663L-105.376 465.054L99.8142 483.413L281.738 584.493L474.67 646.436L674.106 685.252L638.081 813.337L443.148 758.51L248.215 703.682L53.2814 648.855L-141.652 594.028L-336.585 539.2L-531.518 484.373L-726.451 429.546L-921.384 374.719L-1116.32 319.891L-1311.25 265.064L-1266.22 104.958Z" fill="#763C22"/>
<path d="M-1272.72 128.085L-1078.79 186.47L-895.366 282.213L-692.427 308.577L-490.989 340.278L-306.063 430.684L-107.628 473.059L78.5494 559.018L274.733 609.398L482.926 617.083L678.86 668.352L638.081 813.337L443.148 758.51L248.215 703.682L53.2816 648.855L-141.652 594.028L-336.585 539.201L-531.518 484.373L-726.451 429.546L-921.384 374.719L-1116.32 319.891L-1311.25 265.064L-1272.72 128.085Z" fill="#924420"/>
<path d="M-1281.73 160.106L-1089.55 224.717L-898.868 294.666L-700.433 337.04L-502.998 382.973L-309.816 444.027L-111.38 486.401L71.5444 583.923L280.738 588.051L472.168 655.331L661.097 731.505L638.081 813.337L443.148 758.51L248.215 703.683L53.2815 648.855L-141.652 594.028L-336.585 539.201L-531.518 484.373L-726.451 429.546L-921.384 374.719L-1116.32 319.891L-1311.25 265.064L-1281.73 160.106Z" fill="#AF4C1E"/>
<path d="M-1288.23 183.232L-1098.8 257.628L-907.624 325.797L-710.189 371.73L-515.757 428.336L-322.575 489.39L-121.387 521.98L67.2915 599.045L266.227 639.64L456.157 712.257L655.593 751.074L638.081 813.337L443.148 758.51L248.215 703.682L53.2816 648.855L-141.652 594.028L-336.585 539.201L-531.518 484.373L-726.451 429.546L-921.384 374.719L-1116.32 319.891L-1311.25 265.064L-1288.23 183.232Z" fill="#CD541A"/>
<path d="M-1302.24 233.043L-1101.31 266.523L-912.628 343.587L-720.697 409.088L-516.757 431.894L-326.828 504.511L-133.146 563.786L60.0364 624.839L263.225 650.314L456.657 710.478L650.089 770.642L638.081 813.337L443.148 758.51L248.215 703.682L53.2816 648.855L-141.651 594.028L-336.585 539.2L-531.518 484.373L-726.451 429.546L-921.384 374.719L-1116.32 319.891L-1311.25 265.064L-1302.24 233.043Z" fill="#EC5B13"/>
</svg>
