<svg width="1219" height="205" viewBox="0 0 1219 205" fill="none" xmlns="http://www.w3.org/2000/svg">
<path d="M1250.97 166.195L1066.45 145.858L879.664 143.379L698.032 100.224L509.743 109.65L334.517 15.8991L147.735 13.4198L-31.7617 -46.6002L-227.084 18.3821L-406.832 -39.6537L-584.57 -113.563L-557.943 -323.884L-373.8 -300.571L-189.656 -277.258L-5.51149 -253.945L178.633 -230.632L362.777 -207.319L546.921 -184.006L731.065 -160.693L915.209 -137.38L1099.35 -114.067L1283.5 -90.7544L1250.97 166.195Z" fill="#222222"/>
<path d="M1249.46 178.1L1070.97 110.143L883.934 109.648L703.935 53.5963L512.883 84.8478L332.884 28.7962L155.648 -49.0812L-29.6265 -63.4655L-215.906 -69.9131L-396.407 -121.996L-590.348 -67.927L-557.943 -323.884L-373.8 -300.571L-189.656 -277.258L-5.5115 -253.945L178.633 -230.632L362.777 -207.319L546.921 -184.006L731.065 -160.693L915.209 -137.38L1099.35 -114.067L1283.5 -90.7544L1249.46 178.1Z" fill="#3E2B23"/>
<path d="M1255.24 132.464L1074.86 79.3884L896.118 13.4159L710.843 -0.968308L519.038 36.2357L338.536 -15.8476L152.382 -23.2873L-34.0225 -28.7428L-218.92 -46.1032L-396.784 -119.02L-585.324 -107.61L-557.943 -323.884L-373.8 -300.571L-189.656 -277.258L-5.5115 -253.945L178.633 -230.632L362.777 -207.319L546.921 -184.006L731.065 -160.693L915.209 -137.38L1099.35 -114.067L1283.5 -90.7545L1255.24 132.464Z" fill="#5A3422"/>
<path d="M1260.89 87.8202L1076.49 66.4914L899.634 -14.3622L712.978 -17.8336L531.346 -60.9881L342.932 -50.5703L160.421 -86.7803L-28.873 -69.418L-206.486 -144.319L-389.625 -175.569L-576.03 -181.024L-557.943 -323.884L-373.8 -300.571L-189.656 -277.258L-5.51152 -253.945L178.632 -230.632L362.777 -207.319L546.921 -184.006L731.065 -160.693L915.209 -137.38L1099.35 -114.067L1283.5 -90.7544L1260.89 87.8202Z" fill="#763C22"/>
<path d="M1264.15 62.0261L1080.51 34.7448L902.146 -34.2039L713.983 -25.7702L526.573 -23.2891L347.453 -86.2853L161.551 -95.7091L-18.197 -153.745L-202.969 -172.097L-393.77 -142.83L-578.416 -162.175L-557.943 -323.884L-373.8 -300.571L-189.656 -277.258L-5.51151 -253.945L178.633 -230.632L362.777 -207.319L546.921 -184.006L731.065 -160.693L915.209 -137.38L1099.35 -114.067L1283.5 -90.7544L1264.15 62.0261Z" fill="#924420"/>
<path d="M1268.68 26.3111L1085.91 -7.91475L903.905 -48.0931L718.002 -57.5169L532.602 -70.9091L349.337 -101.167L163.435 -110.59L-14.6803 -181.523L-205.983 -148.288L-388.369 -185.49L-569.499 -232.613L-557.943 -323.884L-373.8 -300.571L-189.656 -277.258L-5.51151 -253.945L178.633 -230.632L362.777 -207.319L546.921 -184.006L731.065 -160.693L915.209 -137.38L1099.35 -114.067L1283.5 -90.7545L1268.68 26.3111Z" fill="#AF4C1E"/>
<path d="M1271.94 0.51709L1090.56 -44.6216L908.301 -82.8158L722.901 -96.208L539.008 -121.505L355.743 -151.763L168.459 -150.274L-12.5451 -198.389L-198.699 -205.828L-380.331 -248.983L-566.735 -254.438L-557.943 -323.884L-373.8 -300.571L-189.656 -277.258L-5.51151 -253.945L178.633 -230.632L362.777 -207.319L546.921 -184.006L731.065 -160.693L915.209 -137.38L1099.35 -114.067L1283.5 -90.7544L1271.94 0.51709Z" fill="#CD541A"/>
</svg>
