<svg width="31" height="31" viewBox="0 0 31 31" fill="none" xmlns="http://www.w3.org/2000/svg">
<mask id="mask0_12_95" style="mask-type:luminance" maskUnits="userSpaceOnUse" x="0" y="0" width="31" height="31">
<path d="M0 0H31V31H0V0Z" fill="white"/>
</mask>
<g mask="url(#mask0_12_95)">
<path d="M15.3889 0C7.5175 0 8.00833 3.43067 8.00833 3.43067L8.01737 6.98533H15.5271V8.05225H5.0375C5.0375 8.05225 0 7.47746 0 15.46C0 23.4425 4.39554 23.1583 4.39554 23.1583H7.01762V19.4551C7.01762 19.4551 6.87683 15.0376 11.3447 15.0376H18.7925C18.7925 15.0376 22.9775 15.1048 22.9775 10.9714V4.13592C22.9775 4.13592 23.613 0 15.3889 0ZM11.2478 2.38958C11.9944 2.38958 12.5989 2.99667 12.5989 3.74842C12.5989 4.49888 11.9944 5.10596 11.2478 5.10596C10.5013 5.10596 9.89675 4.49888 9.89675 3.74842C9.89675 2.99667 10.5 2.38958 11.2478 2.38958Z" fill="#EC5B13"/>
<path d="M15.6123 31.0001C23.4811 31.0001 22.9903 27.5695 22.9903 27.5695L22.9812 24.0148H15.4715V22.9479H25.9637C25.9637 22.9479 31.0012 23.5227 31.0012 15.5402C31.0012 7.55767 26.6043 7.84183 26.6043 7.84183H23.9823V11.545C23.9823 11.545 24.123 15.9625 19.6552 15.9625H12.2087C12.2087 15.9625 8.02372 15.8954 8.02372 20.0287V26.8642C8.02372 26.8642 7.38822 31.0001 15.6123 31.0001ZM19.7533 28.6105C19.0055 28.6105 18.4023 28.0035 18.4023 27.2517C18.4023 26.5012 19.0055 25.8942 19.7533 25.8942C20.4999 25.8942 21.1044 26.5012 21.1044 27.2517C21.1044 28.0035 20.4999 28.6105 19.7533 28.6105Z" fill="#EC5B13"/>
</g>
</svg>
