<svg width="31" height="28" viewBox="0 0 31 28" fill="none" xmlns="http://www.w3.org/2000/svg">
<path d="M15.5 11.2486C16.9851 11.2486 18.1963 12.4715 18.1963 14C18.1963 15.4558 16.9851 16.6931 15.5 16.6931C14.0149 16.6931 12.8037 15.4558 12.8037 14C12.8037 12.4715 14.0149 11.2486 15.5 11.2486ZM8.82419 25.646C9.73256 26.1992 11.7223 25.3549 14.0149 23.1712C13.2651 22.3123 12.5298 21.3807 11.8377 20.4053C10.6759 20.2922 9.52076 20.1173 8.37721 19.8812C7.64186 22.9965 7.91581 25.1365 8.82419 25.646ZM9.84791 17.29L9.42977 16.5476C9.27116 16.9697 9.11256 17.3919 9.01163 17.7995C9.40093 17.8869 9.83349 17.9596 10.2805 18.0324L9.84791 17.29ZM19.2777 16.1836L20.4456 14L19.2777 11.8164C18.8451 11.0448 18.3837 10.3606 17.9656 9.67642C17.187 9.63275 16.3651 9.63275 15.5 9.63275C14.6349 9.63275 13.813 9.63275 13.0344 9.67642C12.6163 10.3606 12.1549 11.0448 11.7223 11.8164L10.5544 14L11.7223 16.1836C12.1549 16.9552 12.6163 17.6394 13.0344 18.3236C13.813 18.3673 14.6349 18.3673 15.5 18.3673C16.3651 18.3673 17.187 18.3673 17.9656 18.3236C18.3837 17.6394 18.8451 16.9552 19.2777 16.1836ZM15.5 6.40098C15.226 6.72125 14.9377 7.05607 14.6493 7.44912H16.3507C16.0623 7.05607 15.774 6.72125 15.5 6.40098ZM15.5 21.599C15.774 21.2788 16.0623 20.9439 16.3507 20.5509H14.6493C14.9377 20.9439 15.226 21.2788 15.5 21.599ZM22.1614 2.354C21.2674 1.80081 19.2777 2.64515 16.9851 4.82877C17.7349 5.68766 18.4702 6.61935 19.1623 7.5947C20.3447 7.71116 21.5126 7.88585 22.6228 8.11877C23.3581 5.00346 23.0842 2.86351 22.1614 2.354ZM21.1521 10.71L21.5702 11.4524C21.7288 11.0303 21.8874 10.6081 21.9884 10.2005C21.5991 10.1131 21.1665 10.0404 20.7195 9.96757L21.1521 10.71ZM23.2428 0.446963C25.3623 1.66979 25.593 4.887 24.6991 8.64284C28.3614 9.73465 31 11.5398 31 14C31 16.4602 28.3614 18.2654 24.6991 19.3572C25.593 23.113 25.3623 26.3302 23.2428 27.553C21.1377 28.7759 18.2684 27.3783 15.5 24.7143C12.7316 27.3783 9.86233 28.7759 7.74279 27.553C5.63767 26.3302 5.40698 23.113 6.30093 19.3572C2.6386 18.2654 0 16.4602 0 14C0 11.5398 2.6386 9.73465 6.30093 8.64284C5.40698 4.887 5.63767 1.66979 7.74279 0.446963C9.86233 -0.775867 12.7316 0.621653 15.5 3.28568C18.2684 0.621653 21.1377 -0.775867 23.2428 0.446963ZM22.8246 14C23.3149 15.0918 23.7474 16.1836 24.1079 17.29C27.1358 16.3729 28.8372 15.0627 28.8372 14C28.8372 12.9373 27.1358 11.6271 24.1079 10.71C23.7474 11.8164 23.3149 12.9082 22.8246 14ZM8.17535 14C7.68512 12.9082 7.25256 11.8164 6.89209 10.71C3.86419 11.6271 2.16279 12.9373 2.16279 14C2.16279 15.0627 3.86419 16.3729 6.89209 17.29C7.25256 16.1836 7.68512 15.0918 8.17535 14ZM21.1521 17.29L20.7195 18.0324C21.1665 17.9596 21.5991 17.8869 21.9884 17.7995C21.8874 17.3919 21.7288 16.9697 21.5702 16.5476L21.1521 17.29ZM16.9851 23.1712C19.2777 25.3549 21.2674 26.1992 22.1614 25.646C23.0842 25.1365 23.3581 22.9965 22.6228 19.8812C21.5126 20.1142 20.3447 20.2888 19.1623 20.4053C18.4702 21.3807 17.7349 22.3123 16.9851 23.1712ZM9.84791 10.71L10.2805 9.96757C9.83349 10.0404 9.40093 10.1131 9.01163 10.2005C9.11256 10.6081 9.27116 11.0303 9.42977 11.4524L9.84791 10.71ZM14.0149 4.82877C11.7223 2.64515 9.73256 1.80081 8.82419 2.354C7.91581 2.86351 7.64186 5.00346 8.37721 8.11877C9.52076 7.88272 10.6759 7.70778 11.8377 7.5947C12.5298 6.61935 13.2651 5.68766 14.0149 4.82877Z" fill="#EC5B13"/>
</svg>
