<svg width="31" height="36" viewBox="0 0 31 36" fill="none" xmlns="http://www.w3.org/2000/svg">
<path d="M30.7892 4.72216C30.5694 3.96815 30.192 3.26895 29.6815 2.67044C29.1711 2.07193 28.5392 1.58766 27.8275 1.24941C24.7766 -0.371887 19.9356 -0.419458 15.4949 1.13113C11.3454 2.51413 7.50343 4.68217 4.18018 7.51604C0.625595 10.7844 -0.260469 13.8482 0.0611487 15.4798C0.736675 18.9101 4.28997 21.3157 7.14578 23.2482C7.68569 23.6133 8.20751 23.9669 8.66346 24.2973C6.81771 25.2745 3.15979 27.4396 2.0916 29.7591C1.74793 30.417 1.55592 31.1429 1.52956 31.884C1.50319 32.6251 1.64313 33.3627 1.93919 34.0431C2.09979 34.4326 2.33971 34.7847 2.64382 35.0772C2.94794 35.3698 3.30965 35.5964 3.70615 35.7428C4.33314 35.9143 4.98048 36.0008 5.63069 36C6.96375 35.9764 8.27093 35.6296 9.43902 34.9898C10.6071 34.35 11.6009 33.4363 12.3343 32.328C12.9941 31.3155 13.4342 30.177 13.6264 28.9854C13.8186 27.7938 13.7586 26.5754 13.4503 25.4082C14.3241 25.2721 15.2129 25.2592 16.0904 25.3696C16.78 25.3891 17.4584 25.5486 18.0839 25.8385C18.7094 26.1283 19.2687 26.5424 19.7276 27.0552C20.109 27.508 20.3042 28.0877 20.274 28.6778C20.2162 28.9614 20.0971 29.2291 19.9249 29.4622C19.7527 29.6953 19.5315 29.8883 19.2768 30.0278C18.9746 30.2078 18.5199 30.4842 18.6259 31.0602C18.6724 31.3097 18.8816 31.8741 19.7806 31.7185C20.542 31.5093 21.2185 31.0681 21.7153 30.4569C22.2122 29.8456 22.5044 29.095 22.5511 28.3101C22.5599 27.6161 22.4274 26.9275 22.1617 26.2858C21.896 25.6441 21.5025 25.0626 21.0051 24.5763C20.2506 23.8627 19.3581 23.3094 18.3819 22.95C17.4058 22.5906 16.3664 22.4326 15.327 22.4857C14.1646 22.4696 13.0048 22.601 11.8758 22.8766C10.9857 22.0185 10.0347 21.2253 9.03028 20.5031C6.819 18.8317 4.72913 17.2516 4.85183 15.026C5.01329 12.1164 8.0396 9.19905 13.8468 6.35503C19.034 3.81443 23.2163 3.73601 25.3992 4.50616C26.0454 4.67057 26.6026 5.07738 26.9543 5.64145C27.1319 6.17009 27.1823 6.73284 27.1016 7.28441C27.0208 7.83599 26.8111 8.36099 26.4893 8.81719C25.4236 10.4094 24.0046 11.7365 22.3417 12.696C20.6788 13.6555 18.8166 14.2217 16.8989 14.351C16.173 14.5092 15.4207 14.504 14.6971 14.3356C13.9735 14.1672 13.2968 13.8399 12.7166 13.3777C12.3575 12.9894 11.9507 12.5484 11.3294 12.8852C10.8429 13.1509 10.746 13.6605 11.0388 14.414C11.3616 15.0139 11.8037 15.5422 12.3382 15.9666C12.8727 16.391 13.4884 16.7026 14.1478 16.8825C17.2319 17.5597 20.4516 17.258 23.3545 16.0198C27.9102 14.2841 31.984 9.33148 30.7892 4.72216ZM10.1979 28.8964C10.1281 29.1019 10.0453 29.3029 9.94993 29.4981C9.69598 30.0064 9.36827 30.4747 8.97732 30.888C8.59975 31.3839 8.10072 31.7751 7.52792 32.0243C6.95513 32.2735 6.3277 32.3723 5.70561 32.3112C5.63327 32.2701 5.60486 32.1235 5.59582 32.0631C5.62111 31.5065 5.75695 30.9604 5.99549 30.4564C6.23404 29.9523 6.57056 29.5003 6.98562 29.1265C7.99669 28.1374 9.14714 27.3002 10.4007 26.6412C10.5091 27.3984 10.4396 28.1703 10.1979 28.8964Z" fill="#EC5B13"/>
</svg>
