<svg width="31" height="32" viewBox="0 0 31 32" fill="none" xmlns="http://www.w3.org/2000/svg">
<path d="M1.31915 15.9999C1.66901 15.9999 2.00454 15.8594 2.25193 15.6094C2.49932 15.3594 2.6383 15.0202 2.6383 14.6666V2.66665H17.1489V10.6666C17.1489 11.0202 17.2879 11.3594 17.5353 11.6094C17.7827 11.8595 18.1182 11.9999 18.4681 11.9999H26.383V14.6666C26.383 15.0202 26.522 15.3594 26.7693 15.6094C27.0167 15.8594 27.3523 15.9999 27.7021 15.9999C28.052 15.9999 28.3875 15.8594 28.6349 15.6094C28.8823 15.3594 29.0213 15.0202 29.0213 14.6666V10.6666C29.0214 10.4915 28.9874 10.318 28.9212 10.1562C28.855 9.99429 28.7579 9.8472 28.6354 9.72329L19.4014 0.389999C19.2788 0.26622 19.1333 0.168069 18.9731 0.101151C18.813 0.0342343 18.6414 -0.000137314 18.4681 4.12263e-07H2.6383C1.93858 4.12263e-07 1.26752 0.280951 0.772739 0.781045C0.277963 1.28114 0 1.95941 0 2.66665V14.6666C0 15.0202 0.138982 15.3594 0.38637 15.6094C0.633758 15.8594 0.969289 15.9999 1.31915 15.9999ZM19.7872 4.55165L24.518 9.33329H19.7872V4.55165ZM31 30.6665C31 31.0201 30.861 31.3593 30.6136 31.6093C30.3662 31.8594 30.0307 31.9998 29.6809 31.9998H25.0638C24.714 31.9998 24.3784 31.8594 24.131 31.6093C23.8837 31.3593 23.7447 31.0201 23.7447 30.6665V21.3332C23.7447 20.9796 23.8837 20.6405 24.131 20.3904C24.3784 20.1404 24.714 19.9999 25.0638 19.9999C25.4137 19.9999 25.7492 20.1404 25.9966 20.3904C26.244 20.6405 26.383 20.9796 26.383 21.3332V29.3332H29.6809C30.0307 29.3332 30.3662 29.4737 30.6136 29.7237C30.861 29.9738 31 30.3129 31 30.6665ZM8.54479 28.7182C8.49337 29.2282 8.33082 29.7203 8.0688 30.1592C7.80678 30.5981 7.45181 30.9728 7.02941 31.2565C6.17362 31.8332 5.1117 31.9998 4.14543 31.9998C3.3027 31.9954 2.4639 31.8834 1.64894 31.6665C1.31599 31.568 1.03485 31.3408 0.866431 31.0342C0.698009 30.7276 0.655856 30.3663 0.749103 30.0286C0.84235 29.6908 1.06349 29.4038 1.36462 29.2296C1.66576 29.0555 2.02264 29.0083 2.35798 29.0982C3.08021 29.2982 4.82314 29.5482 5.58165 29.0382C5.7284 28.9399 5.8834 28.7849 5.93452 28.3832C5.99223 27.9382 5.81745 27.6999 3.82718 27.1182C2.28543 26.6682 -0.29516 25.9132 0.0346275 23.2666C0.0859556 22.7666 0.24552 22.2842 0.501996 21.8536C0.758473 21.423 1.10557 21.0547 1.51867 20.7749C3.47101 19.4416 6.5842 20.2232 6.93213 20.3149C7.09973 20.3596 7.25699 20.4371 7.39493 20.5432C7.53287 20.6493 7.64879 20.7818 7.73607 20.9331C7.82334 21.0845 7.88027 21.2518 7.9036 21.4254C7.92693 21.599 7.91619 21.7755 7.87202 21.9449C7.82785 22.1143 7.75109 22.2733 7.64614 22.4127C7.54119 22.5521 7.4101 22.6693 7.26035 22.7575C7.1106 22.8457 6.94513 22.9032 6.77338 22.9268C6.60163 22.9504 6.42696 22.9395 6.25936 22.8949C5.51899 22.6999 3.74968 22.4682 2.99117 22.9882C2.89174 23.056 2.80989 23.147 2.7525 23.2534C2.6951 23.3599 2.66386 23.4787 2.66138 23.5999C2.6416 23.7499 2.6383 23.7799 2.84606 23.9166C3.22697 24.1649 3.90798 24.3632 4.5692 24.5565C6.18351 25.0282 8.91415 25.8332 8.54479 28.7182ZM20.2522 29.2565C20.8148 28.2656 21.1094 27.1424 21.1064 25.9999C21.1064 22.6916 18.7402 19.9999 15.8298 19.9999C12.9194 19.9999 10.5532 22.6916 10.5532 25.9999C10.5532 29.3082 12.9194 31.9998 15.8298 31.9998C16.7616 31.9963 17.6723 31.7196 18.4516 31.2032L18.8539 31.6098C19.1015 31.8598 19.4371 32.0002 19.787 32C20.1369 31.9998 20.4724 31.8592 20.7197 31.609C20.967 31.3588 21.1059 31.0196 21.1057 30.6659C21.1056 30.3123 20.9664 29.9732 20.7189 29.7232L20.2522 29.2565ZM15.8298 29.3332C14.3754 29.3332 13.1915 27.8332 13.1915 25.9999C13.1915 24.1666 14.3754 22.6666 15.8298 22.6666C17.2841 22.6666 18.4681 24.1666 18.4681 25.9999C18.4683 26.4248 18.4027 26.8472 18.2735 27.2515L18.0806 27.0565C17.958 26.9328 17.8125 26.8346 17.6524 26.7677C17.4924 26.7007 17.3208 26.6663 17.1475 26.6664C16.7976 26.6665 16.4621 26.8072 16.2148 27.0574C15.9675 27.3076 15.8287 27.6468 15.8288 28.0005C15.829 28.3541 15.9681 28.6932 16.2156 28.9432L16.4927 29.2215C16.2789 29.2937 16.0552 29.3314 15.8298 29.3332Z" fill="#EC5B13"/>
</svg>
