<svg width="31" height="31" viewBox="0 0 31 31" fill="none" xmlns="http://www.w3.org/2000/svg">
<path d="M30.2612 4.53239e-06H0.73622C0.63943 4.38343e-06 0.543589 0.01909 0.454183 0.0561692C0.364776 0.0932484 0.283559 0.147593 0.215178 0.216095C0.146796 0.284596 0.0925938 0.365908 0.0556713 0.45538C0.0187489 0.544851 -0.000168673 0.640725 1.13509e-06 0.737515V30.2625C-0.000169013 30.3594 0.0187911 30.4554 0.0557943 30.5449C0.0927974 30.6345 0.147116 30.7158 0.215634 30.7844C0.284152 30.8529 0.365522 30.9072 0.455078 30.9442C0.544633 30.9812 0.640613 31.0002 0.737512 31H30.2625C30.3594 31.0002 30.4554 30.9812 30.5449 30.9442C30.6345 30.9072 30.7158 30.8529 30.7844 30.7844C30.8529 30.7158 30.9072 30.6345 30.9442 30.5449C30.9812 30.4554 31.0002 30.3594 31 30.2625V0.736224C31 0.639324 30.9809 0.543378 30.9437 0.453887C30.9065 0.364396 30.8521 0.283121 30.7835 0.214723C30.7148 0.146325 30.6333 0.0921489 30.5437 0.0553027C30.4541 0.0184565 30.3581 -0.000335466 30.2612 4.53239e-06ZM18.452 16.5662H14.7618V28.0461H11.8092V16.5662H8.11908V14.023H18.452V16.5662ZM19.2786 27.3899V24.3224C19.2786 24.3224 20.9551 25.5856 22.9662 25.5856C24.9772 25.5856 24.8997 24.2707 24.8997 24.0899C24.8997 22.1822 19.2011 22.1822 19.2011 17.9534C19.2011 12.2032 27.5049 14.4725 27.5049 14.4725L27.4016 17.2056C27.4016 17.2056 26.0092 16.2769 24.436 16.2769C22.8628 16.2769 22.2958 17.026 22.2958 17.8243C22.2958 19.887 28.0461 19.6816 28.0461 23.8328C28.0461 30.2263 19.2786 27.3912 19.2786 27.3912" fill="#EC5B13"/>
</svg>
