<svg width="31" height="31" viewBox="0 0 31 31" fill="none" xmlns="http://www.w3.org/2000/svg">
<path d="M29.8986 3.27784L23.5215 0.193878C23.1609 0.018232 22.7547 -0.0400481 22.3595 0.027145C21.9644 0.094338 21.5999 0.283663 21.3168 0.568784L9.10227 11.7721L3.7792 7.71439C3.53947 7.53015 3.24301 7.43635 2.94153 7.44935C2.64004 7.46234 2.35266 7.58129 2.12949 7.78547L0.424557 9.34742C0.291299 9.46847 0.184692 9.6162 0.111578 9.78111C0.0384647 9.94602 0.000460245 10.1245 4.15443e-06 10.305C-0.000451936 10.4856 0.0366504 10.6642 0.10893 10.8295C0.181209 10.9948 0.287068 11.1431 0.419713 11.2648L5.03659 15.4998L0.419713 19.7347C0.287068 19.8565 0.181209 20.0047 0.10893 20.17C0.0366504 20.3353 -0.000451936 20.514 4.15443e-06 20.6945C0.000460245 20.8751 0.0384647 21.0535 0.111578 21.2184C0.184692 21.3833 0.291299 21.5311 0.424557 21.6521L2.12949 23.2141C2.35266 23.4182 2.64004 23.5372 2.94153 23.5502C3.24301 23.5632 3.53947 23.4694 3.7792 23.2851L9.10227 19.2225L21.3226 30.4308C21.6045 30.7161 21.9682 30.9056 22.3627 30.9729C22.7572 31.0401 23.1627 30.9816 23.5225 30.8057L29.9053 27.7168C30.2342 27.5584 30.5117 27.3094 30.7055 26.9988C30.8992 26.6882 31.0013 26.3287 31 25.9621V5.03065C31 4.28473 30.5709 3.60016 29.9005 3.2759L29.8986 3.27784ZM23.2532 22.5762L13.9797 15.5007L23.2532 8.42525V22.5762Z" fill="#EC5B13"/>
</svg>
